<mxfile host="app.diagrams.net" agent="Mozilla/5.0 (Windows NT 10.0; Win64; x64) AppleWebKit/537.36 (KHTML, like Gecko) Chrome/137.0.0.0 Safari/537.36 Edg/137.0.0.0" version="27.1.1">
  <diagram name="Page-1" id="dXATrI7zB6BkvGl8YWXl">
    <mxGraphModel dx="3200" dy="2282" grid="1" gridSize="10" guides="1" tooltips="1" connect="1" arrows="1" fold="1" page="1" pageScale="1" pageWidth="1100" pageHeight="850" background="#ffffff" math="0" shadow="0" adaptiveColors="auto">
      <root>
        <mxCell id="0" />
        <mxCell id="1" parent="0" />
        <mxCell id="Q8-ERmqbzzPLjcMzx1Q9-108" value="dsdsd" style="points=[[0,0],[0.25,0],[0.5,0],[0.75,0],[1,0],[1,0.25],[1,0.5],[1,0.75],[1,1],[0.75,1],[0.5,1],[0.25,1],[0,1],[0,0.75],[0,0.5],[0,0.25]];outlineConnect=0;gradientColor=none;html=1;whiteSpace=wrap;fontSize=12;fontStyle=0;container=1;pointerEvents=0;collapsible=0;recursiveResize=0;shape=mxgraph.aws4.group;grIcon=mxgraph.aws4.group_aws_cloud_alt;strokeColor=#232F3E;fillColor=none;verticalAlign=top;align=left;spacingLeft=30;fontColor=#232F3E;dashed=0;shadow=0;" vertex="1" parent="1">
          <mxGeometry x="-180" y="-460" width="1377.5" height="1140" as="geometry" />
        </mxCell>
        <mxCell id="Q8-ERmqbzzPLjcMzx1Q9-109" value="&lt;font style=&quot;font-size: 16px;&quot;&gt;N.Verginia&lt;/font&gt;&lt;div&gt;&lt;br&gt;&lt;/div&gt;" style="points=[[0,0],[0.25,0],[0.5,0],[0.75,0],[1,0],[1,0.25],[1,0.5],[1,0.75],[1,1],[0.75,1],[0.5,1],[0.25,1],[0,1],[0,0.75],[0,0.5],[0,0.25]];outlineConnect=0;gradientColor=none;html=1;whiteSpace=wrap;fontSize=10;fontStyle=0;container=1;pointerEvents=0;collapsible=0;recursiveResize=0;shape=mxgraph.aws4.group;grIcon=mxgraph.aws4.group_region;strokeColor=#00A4A6;fillColor=none;verticalAlign=top;align=left;spacingLeft=30;fontColor=#147EBA;dashed=1;" vertex="1" parent="Q8-ERmqbzzPLjcMzx1Q9-108">
          <mxGeometry x="30" y="50" width="1300" height="1000" as="geometry" />
        </mxCell>
        <mxCell id="Q8-ERmqbzzPLjcMzx1Q9-110" value="Scalable-web-app-vpc&lt;br&gt;&lt;div&gt;10.0.0.0/16&lt;/div&gt;" style="points=[[0,0],[0.25,0],[0.5,0],[0.75,0],[1,0],[1,0.25],[1,0.5],[1,0.75],[1,1],[0.75,1],[0.5,1],[0.25,1],[0,1],[0,0.75],[0,0.5],[0,0.25]];outlineConnect=0;gradientColor=none;html=1;whiteSpace=wrap;fontSize=12;fontStyle=0;container=1;pointerEvents=0;collapsible=0;recursiveResize=0;shape=mxgraph.aws4.group;grIcon=mxgraph.aws4.group_vpc2;strokeColor=#8C4FFF;fillColor=none;verticalAlign=top;align=left;spacingLeft=30;fontColor=#AAB7B8;dashed=0;" vertex="1" parent="Q8-ERmqbzzPLjcMzx1Q9-109">
          <mxGeometry x="97.5" y="120" width="1140" height="723" as="geometry" />
        </mxCell>
        <mxCell id="Q8-ERmqbzzPLjcMzx1Q9-238" value="Availability Zone" style="fillColor=none;strokeColor=#147EBA;dashed=1;verticalAlign=top;fontStyle=0;fontColor=#147EBA;whiteSpace=wrap;html=1;" vertex="1" parent="Q8-ERmqbzzPLjcMzx1Q9-110">
          <mxGeometry x="710" y="50" width="380" height="650" as="geometry" />
        </mxCell>
        <mxCell id="Q8-ERmqbzzPLjcMzx1Q9-239" value="AZ1" style="text;strokeColor=none;align=center;fillColor=none;html=1;verticalAlign=middle;whiteSpace=wrap;rounded=0;" vertex="1" parent="Q8-ERmqbzzPLjcMzx1Q9-110">
          <mxGeometry x="170" y="20" width="60" height="30" as="geometry" />
        </mxCell>
        <mxCell id="Q8-ERmqbzzPLjcMzx1Q9-240" value="AZ2" style="text;strokeColor=none;align=center;fillColor=none;html=1;verticalAlign=middle;whiteSpace=wrap;rounded=0;" vertex="1" parent="Q8-ERmqbzzPLjcMzx1Q9-110">
          <mxGeometry x="900" y="20" width="60" height="30" as="geometry" />
        </mxCell>
        <mxCell id="Q8-ERmqbzzPLjcMzx1Q9-242" value="&lt;span style=&quot;white-space: pre;&quot; data-slate-fragment=&quot;JTVCJTdCJTIydHlwZSUyMiUzQSUyMmdyb3VwJTIyJTJDJTIyaXNSb290JTIyJTNBdHJ1ZSUyQyUyMmNoaWxkcmVuJTIyJTNBJTVCJTdCJTIydHlwZSUyMiUzQSUyMmdyb3VwJTIyJTJDJTIyY2hpbGRyZW4lMjIlM0ElNUIlN0IlMjJ0eXBlJTIyJTNBJTIyZ3JvdXAlMjIlMkMlMjJpc1Jvb3QlMjIlM0F0cnVlJTJDJTIyY2hpbGRyZW4lMjIlM0ElNUIlN0IlMjJ0eXBlJTIyJTNBJTIyZ3JvdXAlMjIlMkMlMjJjaGlsZHJlbiUyMiUzQSU1QiU3QiUyMnR5cGUlMjIlM0ElMjJsaXN0SXRlbSUyMiUyQyUyMm9yZGVyZWQlMjIlM0FmYWxzZSUyQyUyMmNoaWxkcmVuJTIyJTNBJTVCJTdCJTIydGV4dCUyMiUzQSUyMlByaXZhdGUlMjBhcHBsaWNhdGlvbiUyMHN1Ym5ldCUyMiUyQyUyMmNvZGUlMjIlM0F0cnVlJTdEJTVEJTdEJTVEJTdEJTVEJTdEJTVEJTdEJTVEJTdEJTVE&quot;&gt;Private Database Subnet&lt;/span&gt;" style="points=[[0,0],[0.25,0],[0.5,0],[0.75,0],[1,0],[1,0.25],[1,0.5],[1,0.75],[1,1],[0.75,1],[0.5,1],[0.25,1],[0,1],[0,0.75],[0,0.5],[0,0.25]];outlineConnect=0;gradientColor=none;html=1;whiteSpace=wrap;fontSize=12;fontStyle=0;container=1;pointerEvents=0;collapsible=0;recursiveResize=0;shape=mxgraph.aws4.group;grIcon=mxgraph.aws4.group_security_group;grStroke=0;strokeColor=#00A4A6;fillColor=#E6F6F7;verticalAlign=top;align=left;spacingLeft=30;fontColor=#147EBA;dashed=0;" vertex="1" parent="Q8-ERmqbzzPLjcMzx1Q9-110">
          <mxGeometry x="822.5" y="570" width="220" height="100" as="geometry" />
        </mxCell>
        <mxCell id="6R8JOHNXibe60x__d1td-92" value="10.0.5.0/24" style="text;whiteSpace=wrap;html=1;strokeWidth=4;perimeterSpacing=3;fontSize=16;" vertex="1" parent="Q8-ERmqbzzPLjcMzx1Q9-242">
          <mxGeometry x="90" y="40" width="80" height="29" as="geometry" />
        </mxCell>
        <mxCell id="Q8-ERmqbzzPLjcMzx1Q9-245" value="Public subnet" style="points=[[0,0],[0.25,0],[0.5,0],[0.75,0],[1,0],[1,0.25],[1,0.5],[1,0.75],[1,1],[0.75,1],[0.5,1],[0.25,1],[0,1],[0,0.75],[0,0.5],[0,0.25]];outlineConnect=0;gradientColor=none;html=1;whiteSpace=wrap;fontSize=12;fontStyle=0;container=1;pointerEvents=0;collapsible=0;recursiveResize=0;shape=mxgraph.aws4.group;grIcon=mxgraph.aws4.group_security_group;grStroke=0;strokeColor=#7AA116;fillColor=#F2F6E8;verticalAlign=top;align=left;spacingLeft=30;fontColor=#248814;dashed=0;direction=east;" vertex="1" parent="Q8-ERmqbzzPLjcMzx1Q9-110">
          <mxGeometry x="825" y="80" width="215" height="110" as="geometry" />
        </mxCell>
        <mxCell id="6R8JOHNXibe60x__d1td-86" value="10.0.1.0/24" style="text;whiteSpace=wrap;html=1;strokeWidth=4;perimeterSpacing=3;fontSize=15;" vertex="1" parent="Q8-ERmqbzzPLjcMzx1Q9-245">
          <mxGeometry x="45" y="19.5" width="80" height="29" as="geometry" />
        </mxCell>
        <mxCell id="6R8JOHNXibe60x__d1td-62" value="Basion Host" style="sketch=0;outlineConnect=0;fontColor=#232F3E;gradientColor=none;strokeColor=#ffffff;fillColor=#232F3E;dashed=0;verticalLabelPosition=middle;verticalAlign=bottom;align=center;html=1;whiteSpace=wrap;fontSize=10;fontStyle=1;spacing=3;shape=mxgraph.aws4.productIcon;prIcon=mxgraph.aws4.ec2;" vertex="1" parent="Q8-ERmqbzzPLjcMzx1Q9-245">
          <mxGeometry x="10" y="50" width="50" height="50" as="geometry" />
        </mxCell>
        <mxCell id="Q8-ERmqbzzPLjcMzx1Q9-250" value="Availability Zone" style="fillColor=none;strokeColor=#147EBA;dashed=1;verticalAlign=top;fontStyle=0;fontColor=#147EBA;whiteSpace=wrap;html=1;" vertex="1" parent="Q8-ERmqbzzPLjcMzx1Q9-110">
          <mxGeometry x="40" y="60" width="420" height="640" as="geometry" />
        </mxCell>
        <mxCell id="6R8JOHNXibe60x__d1td-2" value="Public subnet" style="points=[[0,0],[0.25,0],[0.5,0],[0.75,0],[1,0],[1,0.25],[1,0.5],[1,0.75],[1,1],[0.75,1],[0.5,1],[0.25,1],[0,1],[0,0.75],[0,0.5],[0,0.25]];outlineConnect=0;gradientColor=none;html=1;whiteSpace=wrap;fontSize=12;fontStyle=0;container=1;pointerEvents=0;collapsible=0;recursiveResize=0;shape=mxgraph.aws4.group;grIcon=mxgraph.aws4.group_security_group;grStroke=0;strokeColor=#7AA116;fillColor=#F2F6E8;verticalAlign=top;align=left;spacingLeft=30;fontColor=#248814;dashed=0;" vertex="1" parent="Q8-ERmqbzzPLjcMzx1Q9-110">
          <mxGeometry x="150" y="90" width="200" height="110" as="geometry" />
        </mxCell>
        <mxCell id="6R8JOHNXibe60x__d1td-19" value="" style="sketch=0;outlineConnect=0;fontColor=#232F3E;gradientColor=none;fillColor=#8C4FFF;strokeColor=none;dashed=0;verticalLabelPosition=bottom;verticalAlign=top;align=center;html=1;fontSize=12;fontStyle=0;aspect=fixed;pointerEvents=1;shape=mxgraph.aws4.nat_gateway;" vertex="1" parent="6R8JOHNXibe60x__d1td-2">
          <mxGeometry x="120" y="36" width="54" height="54" as="geometry" />
        </mxCell>
        <mxCell id="6R8JOHNXibe60x__d1td-3" value="&lt;span style=&quot;white-space: pre;&quot; data-slate-fragment=&quot;JTVCJTdCJTIydHlwZSUyMiUzQSUyMmdyb3VwJTIyJTJDJTIyaXNSb290JTIyJTNBdHJ1ZSUyQyUyMmNoaWxkcmVuJTIyJTNBJTVCJTdCJTIydHlwZSUyMiUzQSUyMmdyb3VwJTIyJTJDJTIyY2hpbGRyZW4lMjIlM0ElNUIlN0IlMjJ0eXBlJTIyJTNBJTIyZ3JvdXAlMjIlMkMlMjJpc1Jvb3QlMjIlM0F0cnVlJTJDJTIyY2hpbGRyZW4lMjIlM0ElNUIlN0IlMjJ0eXBlJTIyJTNBJTIyZ3JvdXAlMjIlMkMlMjJjaGlsZHJlbiUyMiUzQSU1QiU3QiUyMnR5cGUlMjIlM0ElMjJsaXN0SXRlbSUyMiUyQyUyMm9yZGVyZWQlMjIlM0FmYWxzZSUyQyUyMmNoaWxkcmVuJTIyJTNBJTVCJTdCJTIydGV4dCUyMiUzQSUyMlByaXZhdGUlMjBhcHBsaWNhdGlvbiUyMHN1Ym5ldCUyMiUyQyUyMmNvZGUlMjIlM0F0cnVlJTdEJTVEJTdEJTVEJTdEJTVEJTdEJTVEJTdEJTVEJTdEJTVE&quot;&gt;Private Database subnet&lt;/span&gt;" style="points=[[0,0],[0.25,0],[0.5,0],[0.75,0],[1,0],[1,0.25],[1,0.5],[1,0.75],[1,1],[0.75,1],[0.5,1],[0.25,1],[0,1],[0,0.75],[0,0.5],[0,0.25]];outlineConnect=0;gradientColor=none;html=1;whiteSpace=wrap;fontSize=12;fontStyle=0;container=1;pointerEvents=0;collapsible=0;recursiveResize=0;shape=mxgraph.aws4.group;grIcon=mxgraph.aws4.group_security_group;grStroke=0;strokeColor=#00A4A6;fillColor=#E6F6F7;verticalAlign=top;align=left;spacingLeft=30;fontColor=#147EBA;dashed=0;" vertex="1" parent="Q8-ERmqbzzPLjcMzx1Q9-110">
          <mxGeometry x="132.5" y="570" width="200" height="105" as="geometry" />
        </mxCell>
        <mxCell id="6R8JOHNXibe60x__d1td-33" value="" style="sketch=0;outlineConnect=0;fontColor=#232F3E;gradientColor=none;fillColor=#C925D1;strokeColor=none;dashed=0;verticalLabelPosition=bottom;verticalAlign=top;align=center;html=1;fontSize=12;fontStyle=0;aspect=fixed;pointerEvents=1;shape=mxgraph.aws4.rds_instance;" vertex="1" parent="6R8JOHNXibe60x__d1td-3">
          <mxGeometry x="22.5" y="32" width="58" height="58" as="geometry" />
        </mxCell>
        <mxCell id="6R8JOHNXibe60x__d1td-91" value="10.0.4.0/24" style="text;whiteSpace=wrap;html=1;strokeWidth=4;perimeterSpacing=3;fontSize=16;" vertex="1" parent="6R8JOHNXibe60x__d1td-3">
          <mxGeometry x="97.5" y="40" width="80" height="29" as="geometry" />
        </mxCell>
        <mxCell id="6R8JOHNXibe60x__d1td-94" value="" style="edgeStyle=orthogonalEdgeStyle;rounded=0;orthogonalLoop=1;jettySize=auto;html=1;" edge="1" parent="6R8JOHNXibe60x__d1td-3" source="6R8JOHNXibe60x__d1td-91" target="6R8JOHNXibe60x__d1td-33">
          <mxGeometry relative="1" as="geometry" />
        </mxCell>
        <mxCell id="6R8JOHNXibe60x__d1td-4" value="Private Application Subnet" style="points=[[0,0],[0.25,0],[0.5,0],[0.75,0],[1,0],[1,0.25],[1,0.5],[1,0.75],[1,1],[0.75,1],[0.5,1],[0.25,1],[0,1],[0,0.75],[0,0.5],[0,0.25]];outlineConnect=0;gradientColor=none;html=1;whiteSpace=wrap;fontSize=12;fontStyle=0;container=1;pointerEvents=0;collapsible=0;recursiveResize=0;shape=mxgraph.aws4.group;grIcon=mxgraph.aws4.group_security_group;grStroke=0;strokeColor=#00A4A6;fillColor=#E6F6F7;verticalAlign=top;align=left;spacingLeft=30;fontColor=#147EBA;dashed=0;" vertex="1" parent="Q8-ERmqbzzPLjcMzx1Q9-110">
          <mxGeometry x="820" y="230" width="220" height="110" as="geometry" />
        </mxCell>
        <mxCell id="6R8JOHNXibe60x__d1td-5" value="" style="sketch=0;outlineConnect=0;fontColor=#232F3E;gradientColor=none;fillColor=#8C4FFF;strokeColor=none;dashed=0;verticalLabelPosition=bottom;verticalAlign=top;align=center;html=1;fontSize=12;fontStyle=0;aspect=fixed;pointerEvents=1;shape=mxgraph.aws4.application_load_balancer;" vertex="1" parent="Q8-ERmqbzzPLjcMzx1Q9-110">
          <mxGeometry x="565" y="75" width="78" height="78" as="geometry" />
        </mxCell>
        <mxCell id="6R8JOHNXibe60x__d1td-22" style="edgeStyle=orthogonalEdgeStyle;rounded=0;orthogonalLoop=1;jettySize=auto;html=1;dashed=1;flowAnimation=1;" edge="1" parent="Q8-ERmqbzzPLjcMzx1Q9-110" source="6R8JOHNXibe60x__d1td-8" target="6R8JOHNXibe60x__d1td-20">
          <mxGeometry relative="1" as="geometry" />
        </mxCell>
        <mxCell id="6R8JOHNXibe60x__d1td-14" value="Auto Scaling group" style="points=[[0,0],[0.25,0],[0.5,0],[0.75,0],[1,0],[1,0.25],[1,0.5],[1,0.75],[1,1],[0.75,1],[0.5,1],[0.25,1],[0,1],[0,0.75],[0,0.5],[0,0.25]];outlineConnect=0;gradientColor=none;html=1;whiteSpace=wrap;fontSize=12;fontStyle=0;container=1;pointerEvents=0;collapsible=0;recursiveResize=0;shape=mxgraph.aws4.groupCenter;grIcon=mxgraph.aws4.group_auto_scaling_group;grStroke=1;strokeColor=#D86613;fillColor=none;verticalAlign=top;align=center;fontColor=#D86613;dashed=1;spacingTop=25;direction=north;" vertex="1" parent="Q8-ERmqbzzPLjcMzx1Q9-110">
          <mxGeometry x="80" y="210" width="990" height="150" as="geometry" />
        </mxCell>
        <mxCell id="6R8JOHNXibe60x__d1td-1" value="&lt;span style=&quot;white-space: pre;&quot; data-slate-fragment=&quot;JTVCJTdCJTIydHlwZSUyMiUzQSUyMmdyb3VwJTIyJTJDJTIyaXNSb290JTIyJTNBdHJ1ZSUyQyUyMmNoaWxkcmVuJTIyJTNBJTVCJTdCJTIydHlwZSUyMiUzQSUyMmdyb3VwJTIyJTJDJTIyY2hpbGRyZW4lMjIlM0ElNUIlN0IlMjJ0eXBlJTIyJTNBJTIyZ3JvdXAlMjIlMkMlMjJpc1Jvb3QlMjIlM0F0cnVlJTJDJTIyY2hpbGRyZW4lMjIlM0ElNUIlN0IlMjJ0eXBlJTIyJTNBJTIyZ3JvdXAlMjIlMkMlMjJjaGlsZHJlbiUyMiUzQSU1QiU3QiUyMnR5cGUlMjIlM0ElMjJsaXN0SXRlbSUyMiUyQyUyMm9yZGVyZWQlMjIlM0FmYWxzZSUyQyUyMmNoaWxkcmVuJTIyJTNBJTVCJTdCJTIydGV4dCUyMiUzQSUyMlByaXZhdGUlMjBhcHBsaWNhdGlvbiUyMHN1Ym5ldCUyMiUyQyUyMmNvZGUlMjIlM0F0cnVlJTdEJTVEJTdEJTVEJTdEJTVEJTdEJTVEJTdEJTVEJTdEJTVE&quot;&gt;Private Application subnet&lt;/span&gt;" style="points=[[0,0],[0.25,0],[0.5,0],[0.75,0],[1,0],[1,0.25],[1,0.5],[1,0.75],[1,1],[0.75,1],[0.5,1],[0.25,1],[0,1],[0,0.75],[0,0.5],[0,0.25]];outlineConnect=0;gradientColor=none;html=1;whiteSpace=wrap;fontSize=12;fontStyle=0;container=1;pointerEvents=0;collapsible=0;recursiveResize=0;shape=mxgraph.aws4.group;grIcon=mxgraph.aws4.group_security_group;grStroke=0;strokeColor=#00A4A6;fillColor=#E6F6F7;verticalAlign=top;align=left;spacingLeft=30;fontColor=#147EBA;dashed=0;" vertex="1" parent="6R8JOHNXibe60x__d1td-14">
          <mxGeometry x="62.5" y="10" width="200" height="120" as="geometry" />
        </mxCell>
        <mxCell id="6R8JOHNXibe60x__d1td-87" value="10.0.2.0/24" style="text;whiteSpace=wrap;html=1;strokeWidth=4;perimeterSpacing=3;fontSize=16;" vertex="1" parent="6R8JOHNXibe60x__d1td-1">
          <mxGeometry x="67.5" y="30" width="80" height="29" as="geometry" />
        </mxCell>
        <mxCell id="6R8JOHNXibe60x__d1td-89" style="edgeStyle=orthogonalEdgeStyle;rounded=0;orthogonalLoop=1;jettySize=auto;html=1;exitX=0.5;exitY=1;exitDx=0;exitDy=0;entryX=0.25;entryY=1;entryDx=0;entryDy=0;" edge="1" parent="6R8JOHNXibe60x__d1td-1" source="6R8JOHNXibe60x__d1td-87" target="6R8JOHNXibe60x__d1td-87">
          <mxGeometry relative="1" as="geometry" />
        </mxCell>
        <mxCell id="6R8JOHNXibe60x__d1td-7" value="Amazon EC2" style="sketch=0;outlineConnect=0;fontColor=#232F3E;gradientColor=none;strokeColor=#ffffff;fillColor=#232F3E;dashed=0;verticalLabelPosition=middle;verticalAlign=bottom;align=center;html=1;whiteSpace=wrap;fontSize=10;fontStyle=1;spacing=3;shape=mxgraph.aws4.productIcon;prIcon=mxgraph.aws4.ec2;" vertex="1" parent="6R8JOHNXibe60x__d1td-1">
          <mxGeometry x="17.5" y="30.75" width="50" height="49.25" as="geometry" />
        </mxCell>
        <mxCell id="6R8JOHNXibe60x__d1td-111" value="&lt;font&gt;Application Load Balancer&lt;/font&gt;" style="edgeLabel;html=1;align=center;verticalAlign=middle;resizable=0;points=[];fontSize=17;" vertex="1" connectable="0" parent="6R8JOHNXibe60x__d1td-14">
          <mxGeometry x="512.5" y="70" as="geometry">
            <mxPoint x="-18" y="26" as="offset" />
          </mxGeometry>
        </mxCell>
        <mxCell id="6R8JOHNXibe60x__d1td-112" value="" style="edgeStyle=orthogonalEdgeStyle;rounded=0;orthogonalLoop=1;jettySize=auto;html=1;" edge="1" parent="Q8-ERmqbzzPLjcMzx1Q9-110" source="6R8JOHNXibe60x__d1td-20" target="6R8JOHNXibe60x__d1td-62">
          <mxGeometry relative="1" as="geometry" />
        </mxCell>
        <mxCell id="6R8JOHNXibe60x__d1td-20" value="" style="sketch=0;outlineConnect=0;fontColor=#232F3E;gradientColor=none;fillColor=#8C4FFF;strokeColor=none;dashed=0;verticalLabelPosition=bottom;verticalAlign=top;align=center;html=1;fontSize=12;fontStyle=0;aspect=fixed;pointerEvents=1;shape=mxgraph.aws4.nat_gateway;" vertex="1" parent="Q8-ERmqbzzPLjcMzx1Q9-110">
          <mxGeometry x="960" y="111" width="48" height="48" as="geometry" />
        </mxCell>
        <mxCell id="6R8JOHNXibe60x__d1td-58" value="&lt;font style=&quot;font-size: 14px;&quot;&gt;Report Events&lt;/font&gt;" style="edgeLabel;html=1;align=center;verticalAlign=middle;resizable=0;points=[];" vertex="1" connectable="0" parent="Q8-ERmqbzzPLjcMzx1Q9-110">
          <mxGeometry x="575" y="600" as="geometry" />
        </mxCell>
        <mxCell id="6R8JOHNXibe60x__d1td-59" value="&lt;font style=&quot;font-size: 16px;&quot;&gt;IAM Roles&lt;/font&gt;" style="edgeLabel;html=1;align=center;verticalAlign=middle;resizable=0;points=[];" vertex="1" connectable="0" parent="Q8-ERmqbzzPLjcMzx1Q9-110">
          <mxGeometry x="420" y="380" as="geometry">
            <mxPoint x="-64" y="-14" as="offset" />
          </mxGeometry>
        </mxCell>
        <mxCell id="6R8JOHNXibe60x__d1td-60" value="Basion Host" style="sketch=0;outlineConnect=0;fontColor=#232F3E;gradientColor=none;strokeColor=#ffffff;fillColor=#232F3E;dashed=0;verticalLabelPosition=middle;verticalAlign=bottom;align=center;html=1;whiteSpace=wrap;fontSize=10;fontStyle=1;spacing=3;shape=mxgraph.aws4.productIcon;prIcon=mxgraph.aws4.ec2;" vertex="1" parent="Q8-ERmqbzzPLjcMzx1Q9-110">
          <mxGeometry x="160" y="140" width="50" height="50" as="geometry" />
        </mxCell>
        <mxCell id="6R8JOHNXibe60x__d1td-61" value="" style="edgeStyle=orthogonalEdgeStyle;rounded=0;orthogonalLoop=1;jettySize=auto;html=1;flowAnimation=1;entryX=0;entryY=1;entryDx=0;entryDy=0;" edge="1" parent="Q8-ERmqbzzPLjcMzx1Q9-110" source="6R8JOHNXibe60x__d1td-5" target="6R8JOHNXibe60x__d1td-87">
          <mxGeometry relative="1" as="geometry">
            <mxPoint x="605" y="54" as="sourcePoint" />
            <mxPoint x="240" y="230" as="targetPoint" />
          </mxGeometry>
        </mxCell>
        <mxCell id="6R8JOHNXibe60x__d1td-63" value="" style="edgeStyle=orthogonalEdgeStyle;rounded=0;orthogonalLoop=1;jettySize=auto;html=1;flowAnimation=1;" edge="1" parent="Q8-ERmqbzzPLjcMzx1Q9-110" source="6R8JOHNXibe60x__d1td-5" target="6R8JOHNXibe60x__d1td-8">
          <mxGeometry relative="1" as="geometry">
            <mxPoint x="683" y="54" as="sourcePoint" />
            <mxPoint x="911" y="226" as="targetPoint" />
          </mxGeometry>
        </mxCell>
        <mxCell id="6R8JOHNXibe60x__d1td-75" value="" style="edgeStyle=orthogonalEdgeStyle;html=1;endArrow=block;elbow=vertical;startArrow=block;startFill=1;endFill=1;strokeColor=#545B64;rounded=0;flowAnimation=1;" edge="1" parent="Q8-ERmqbzzPLjcMzx1Q9-110" source="6R8JOHNXibe60x__d1td-33" target="6R8JOHNXibe60x__d1td-34">
          <mxGeometry width="100" relative="1" as="geometry">
            <mxPoint x="540" y="520" as="sourcePoint" />
            <mxPoint x="640" y="520" as="targetPoint" />
          </mxGeometry>
        </mxCell>
        <mxCell id="6R8JOHNXibe60x__d1td-76" value="&lt;font style=&quot;font-size: 14px;&quot;&gt;automated backups, failover, read replicas&lt;/font&gt;" style="edgeLabel;html=1;align=center;verticalAlign=middle;resizable=0;points=[];" vertex="1" connectable="0" parent="Q8-ERmqbzzPLjcMzx1Q9-110">
          <mxGeometry x="565" y="470" as="geometry">
            <mxPoint x="24" y="23" as="offset" />
          </mxGeometry>
        </mxCell>
        <mxCell id="6R8JOHNXibe60x__d1td-79" value="&lt;font style=&quot;font-size: 14px;&quot;&gt;Alert&lt;/font&gt;" style="edgeLabel;html=1;align=center;verticalAlign=middle;resizable=0;points=[];" vertex="1" connectable="0" parent="Q8-ERmqbzzPLjcMzx1Q9-110">
          <mxGeometry x="820" y="690" as="geometry" />
        </mxCell>
        <mxCell id="6R8JOHNXibe60x__d1td-80" value="&lt;font&gt;Application Load Balancer&lt;/font&gt;" style="edgeLabel;html=1;align=center;verticalAlign=middle;resizable=0;points=[];fontSize=17;" vertex="1" connectable="0" parent="Q8-ERmqbzzPLjcMzx1Q9-110">
          <mxGeometry x="610" y="20" as="geometry">
            <mxPoint x="-18" y="26" as="offset" />
          </mxGeometry>
        </mxCell>
        <mxCell id="6R8JOHNXibe60x__d1td-85" value="10.0.0.0/24" style="text;whiteSpace=wrap;html=1;strokeWidth=4;perimeterSpacing=3;fontSize=15;" vertex="1" parent="Q8-ERmqbzzPLjcMzx1Q9-110">
          <mxGeometry x="155" y="111" width="80" height="29" as="geometry" />
        </mxCell>
        <mxCell id="6R8JOHNXibe60x__d1td-73" value="&lt;font style=&quot;font-size: 14px;&quot;&gt;Standby&lt;/font&gt;" style="edgeLabel;html=1;align=center;verticalAlign=middle;resizable=0;points=[];" vertex="1" connectable="0" parent="Q8-ERmqbzzPLjcMzx1Q9-110">
          <mxGeometry x="972.5" y="602" as="geometry">
            <mxPoint x="5" y="-2" as="offset" />
          </mxGeometry>
        </mxCell>
        <mxCell id="6R8JOHNXibe60x__d1td-12" style="edgeStyle=orthogonalEdgeStyle;rounded=0;orthogonalLoop=1;jettySize=auto;html=1;flowAnimation=1;" edge="1" parent="Q8-ERmqbzzPLjcMzx1Q9-110" source="6R8JOHNXibe60x__d1td-60" target="6R8JOHNXibe60x__d1td-7">
          <mxGeometry relative="1" as="geometry" />
        </mxCell>
        <mxCell id="6R8JOHNXibe60x__d1td-23" style="edgeStyle=orthogonalEdgeStyle;rounded=0;orthogonalLoop=1;jettySize=auto;html=1;dashed=1;flowAnimation=1;" edge="1" parent="Q8-ERmqbzzPLjcMzx1Q9-110" source="6R8JOHNXibe60x__d1td-7" target="6R8JOHNXibe60x__d1td-19">
          <mxGeometry relative="1" as="geometry" />
        </mxCell>
        <mxCell id="6R8JOHNXibe60x__d1td-42" value="" style="edgeStyle=orthogonalEdgeStyle;html=1;endArrow=block;elbow=vertical;startArrow=block;startFill=1;endFill=1;strokeColor=#545B64;rounded=0;" edge="1" parent="Q8-ERmqbzzPLjcMzx1Q9-110" source="6R8JOHNXibe60x__d1td-7" target="6R8JOHNXibe60x__d1td-33">
          <mxGeometry width="100" relative="1" as="geometry">
            <mxPoint x="175" y="423" as="sourcePoint" />
            <mxPoint x="275" y="423" as="targetPoint" />
          </mxGeometry>
        </mxCell>
        <mxCell id="6R8JOHNXibe60x__d1td-46" style="edgeStyle=orthogonalEdgeStyle;rounded=0;orthogonalLoop=1;jettySize=auto;html=1;" edge="1" parent="Q8-ERmqbzzPLjcMzx1Q9-110" source="6R8JOHNXibe60x__d1td-44" target="6R8JOHNXibe60x__d1td-7">
          <mxGeometry relative="1" as="geometry" />
        </mxCell>
        <mxCell id="6R8JOHNXibe60x__d1td-69" style="edgeStyle=orthogonalEdgeStyle;rounded=0;orthogonalLoop=1;jettySize=auto;html=1;" edge="1" parent="Q8-ERmqbzzPLjcMzx1Q9-110" source="6R8JOHNXibe60x__d1td-7" target="6R8JOHNXibe60x__d1td-60">
          <mxGeometry relative="1" as="geometry" />
        </mxCell>
        <mxCell id="6R8JOHNXibe60x__d1td-93" value="" style="edgeStyle=orthogonalEdgeStyle;rounded=0;orthogonalLoop=1;jettySize=auto;html=1;" edge="1" parent="Q8-ERmqbzzPLjcMzx1Q9-110" source="6R8JOHNXibe60x__d1td-7" target="6R8JOHNXibe60x__d1td-60">
          <mxGeometry relative="1" as="geometry" />
        </mxCell>
        <mxCell id="6R8JOHNXibe60x__d1td-44" value="" style="sketch=0;outlineConnect=0;fontColor=#232F3E;gradientColor=none;fillColor=#DD344C;strokeColor=none;dashed=0;verticalLabelPosition=bottom;verticalAlign=top;align=center;html=1;fontSize=12;fontStyle=0;aspect=fixed;pointerEvents=1;shape=mxgraph.aws4.identity_access_management_iam_roles_anywhere;" vertex="1" parent="Q8-ERmqbzzPLjcMzx1Q9-110">
          <mxGeometry x="235" y="280" width="46.5" height="46.5" as="geometry" />
        </mxCell>
        <mxCell id="6R8JOHNXibe60x__d1td-90" value="10.0.3.0/24" style="text;whiteSpace=wrap;html=1;strokeWidth=4;perimeterSpacing=3;fontSize=16;" vertex="1" parent="Q8-ERmqbzzPLjcMzx1Q9-110">
          <mxGeometry x="880" y="270" width="80" height="46.25" as="geometry" />
        </mxCell>
        <mxCell id="6R8JOHNXibe60x__d1td-72" value="&lt;font style=&quot;font-size: 14px;&quot;&gt;Primary&lt;/font&gt;" style="edgeLabel;html=1;align=center;verticalAlign=middle;resizable=0;points=[];" vertex="1" connectable="0" parent="Q8-ERmqbzzPLjcMzx1Q9-110">
          <mxGeometry x="270" y="600" as="geometry">
            <mxPoint y="-4" as="offset" />
          </mxGeometry>
        </mxCell>
        <mxCell id="6R8JOHNXibe60x__d1td-34" value="" style="sketch=0;outlineConnect=0;fontColor=#232F3E;gradientColor=none;fillColor=#C925D1;strokeColor=none;dashed=0;verticalLabelPosition=bottom;verticalAlign=top;align=center;html=1;fontSize=12;fontStyle=0;aspect=fixed;pointerEvents=1;shape=mxgraph.aws4.rds_instance;" vertex="1" parent="Q8-ERmqbzzPLjcMzx1Q9-110">
          <mxGeometry x="832" y="602" width="58" height="58" as="geometry" />
        </mxCell>
        <mxCell id="6R8JOHNXibe60x__d1td-114" style="edgeStyle=orthogonalEdgeStyle;rounded=0;orthogonalLoop=1;jettySize=auto;html=1;flowAnimation=1;" edge="1" parent="Q8-ERmqbzzPLjcMzx1Q9-110" source="6R8JOHNXibe60x__d1td-8" target="6R8JOHNXibe60x__d1td-107">
          <mxGeometry relative="1" as="geometry" />
        </mxCell>
        <mxCell id="6R8JOHNXibe60x__d1td-8" value="Amazon EC2" style="sketch=0;outlineConnect=0;fontColor=#232F3E;gradientColor=none;strokeColor=#ffffff;fillColor=#232F3E;dashed=0;verticalLabelPosition=middle;verticalAlign=bottom;align=center;html=1;whiteSpace=wrap;fontSize=10;fontStyle=1;spacing=3;shape=mxgraph.aws4.productIcon;prIcon=mxgraph.aws4.ec2;" vertex="1" parent="Q8-ERmqbzzPLjcMzx1Q9-110">
          <mxGeometry x="822.5" y="280" width="45" height="50" as="geometry" />
        </mxCell>
        <mxCell id="6R8JOHNXibe60x__d1td-47" style="edgeStyle=orthogonalEdgeStyle;rounded=0;orthogonalLoop=1;jettySize=auto;html=1;" edge="1" parent="Q8-ERmqbzzPLjcMzx1Q9-110" source="6R8JOHNXibe60x__d1td-45" target="6R8JOHNXibe60x__d1td-8">
          <mxGeometry relative="1" as="geometry" />
        </mxCell>
        <mxCell id="6R8JOHNXibe60x__d1td-45" value="" style="sketch=0;outlineConnect=0;fontColor=#232F3E;gradientColor=none;fillColor=#DD344C;strokeColor=none;dashed=0;verticalLabelPosition=bottom;verticalAlign=top;align=center;html=1;fontSize=12;fontStyle=0;aspect=fixed;pointerEvents=1;shape=mxgraph.aws4.identity_access_management_iam_roles_anywhere;" vertex="1" parent="Q8-ERmqbzzPLjcMzx1Q9-110">
          <mxGeometry x="972.5" y="281.5" width="47" height="47" as="geometry" />
        </mxCell>
        <mxCell id="6R8JOHNXibe60x__d1td-96" value="Auto Scaling group" style="points=[[0,0],[0.25,0],[0.5,0],[0.75,0],[1,0],[1,0.25],[1,0.5],[1,0.75],[1,1],[0.75,1],[0.5,1],[0.25,1],[0,1],[0,0.75],[0,0.5],[0,0.25]];outlineConnect=0;gradientColor=none;html=1;whiteSpace=wrap;fontSize=12;fontStyle=0;container=1;pointerEvents=0;collapsible=0;recursiveResize=0;shape=mxgraph.aws4.groupCenter;grIcon=mxgraph.aws4.group_auto_scaling_group;grStroke=1;strokeColor=#D86613;fillColor=none;verticalAlign=top;align=center;fontColor=#D86613;dashed=1;spacingTop=25;direction=north;" vertex="1" parent="Q8-ERmqbzzPLjcMzx1Q9-110">
          <mxGeometry x="80" y="395" width="990" height="150" as="geometry" />
        </mxCell>
        <mxCell id="6R8JOHNXibe60x__d1td-98" value="&lt;span style=&quot;white-space: pre;&quot; data-slate-fragment=&quot;JTVCJTdCJTIydHlwZSUyMiUzQSUyMmdyb3VwJTIyJTJDJTIyaXNSb290JTIyJTNBdHJ1ZSUyQyUyMmNoaWxkcmVuJTIyJTNBJTVCJTdCJTIydHlwZSUyMiUzQSUyMmdyb3VwJTIyJTJDJTIyY2hpbGRyZW4lMjIlM0ElNUIlN0IlMjJ0eXBlJTIyJTNBJTIyZ3JvdXAlMjIlMkMlMjJpc1Jvb3QlMjIlM0F0cnVlJTJDJTIyY2hpbGRyZW4lMjIlM0ElNUIlN0IlMjJ0eXBlJTIyJTNBJTIyZ3JvdXAlMjIlMkMlMjJjaGlsZHJlbiUyMiUzQSU1QiU3QiUyMnR5cGUlMjIlM0ElMjJsaXN0SXRlbSUyMiUyQyUyMm9yZGVyZWQlMjIlM0FmYWxzZSUyQyUyMmNoaWxkcmVuJTIyJTNBJTVCJTdCJTIydGV4dCUyMiUzQSUyMlByaXZhdGUlMjBhcHBsaWNhdGlvbiUyMHN1Ym5ldCUyMiUyQyUyMmNvZGUlMjIlM0F0cnVlJTdEJTVEJTdEJTVEJTdEJTVEJTdEJTVEJTdEJTVEJTdEJTVE&quot;&gt;Private Web subnet&lt;/span&gt;" style="points=[[0,0],[0.25,0],[0.5,0],[0.75,0],[1,0],[1,0.25],[1,0.5],[1,0.75],[1,1],[0.75,1],[0.5,1],[0.25,1],[0,1],[0,0.75],[0,0.5],[0,0.25]];outlineConnect=0;gradientColor=none;html=1;whiteSpace=wrap;fontSize=12;fontStyle=0;container=1;pointerEvents=0;collapsible=0;recursiveResize=0;shape=mxgraph.aws4.group;grIcon=mxgraph.aws4.group_security_group;grStroke=0;strokeColor=#00A4A6;fillColor=#E6F6F7;verticalAlign=top;align=left;spacingLeft=30;fontColor=#147EBA;dashed=0;" vertex="1" parent="6R8JOHNXibe60x__d1td-96">
          <mxGeometry x="62.5" y="10" width="200" height="120" as="geometry" />
        </mxCell>
        <mxCell id="6R8JOHNXibe60x__d1td-99" value="10.0.6.0/24" style="text;whiteSpace=wrap;html=1;strokeWidth=4;perimeterSpacing=3;fontSize=16;" vertex="1" parent="6R8JOHNXibe60x__d1td-98">
          <mxGeometry x="67.5" y="30" width="80" height="29" as="geometry" />
        </mxCell>
        <mxCell id="6R8JOHNXibe60x__d1td-101" value="Amazon EC2" style="sketch=0;outlineConnect=0;fontColor=#232F3E;gradientColor=none;strokeColor=#ffffff;fillColor=#232F3E;dashed=0;verticalLabelPosition=middle;verticalAlign=bottom;align=center;html=1;whiteSpace=wrap;fontSize=10;fontStyle=1;spacing=3;shape=mxgraph.aws4.productIcon;prIcon=mxgraph.aws4.ec2;" vertex="1" parent="6R8JOHNXibe60x__d1td-98">
          <mxGeometry x="10" y="35.37" width="50" height="49.25" as="geometry" />
        </mxCell>
        <mxCell id="6R8JOHNXibe60x__d1td-104" value="&lt;span style=&quot;white-space: pre;&quot; data-slate-fragment=&quot;JTVCJTdCJTIydHlwZSUyMiUzQSUyMmdyb3VwJTIyJTJDJTIyaXNSb290JTIyJTNBdHJ1ZSUyQyUyMmNoaWxkcmVuJTIyJTNBJTVCJTdCJTIydHlwZSUyMiUzQSUyMmdyb3VwJTIyJTJDJTIyY2hpbGRyZW4lMjIlM0ElNUIlN0IlMjJ0eXBlJTIyJTNBJTIyZ3JvdXAlMjIlMkMlMjJpc1Jvb3QlMjIlM0F0cnVlJTJDJTIyY2hpbGRyZW4lMjIlM0ElNUIlN0IlMjJ0eXBlJTIyJTNBJTIyZ3JvdXAlMjIlMkMlMjJjaGlsZHJlbiUyMiUzQSU1QiU3QiUyMnR5cGUlMjIlM0ElMjJsaXN0SXRlbSUyMiUyQyUyMm9yZGVyZWQlMjIlM0FmYWxzZSUyQyUyMmNoaWxkcmVuJTIyJTNBJTVCJTdCJTIydGV4dCUyMiUzQSUyMlByaXZhdGUlMjBhcHBsaWNhdGlvbiUyMHN1Ym5ldCUyMiUyQyUyMmNvZGUlMjIlM0F0cnVlJTdEJTVEJTdEJTVEJTdEJTVEJTdEJTVEJTdEJTVEJTdEJTVE&quot;&gt;Private Web subnet&lt;/span&gt;" style="points=[[0,0],[0.25,0],[0.5,0],[0.75,0],[1,0],[1,0.25],[1,0.5],[1,0.75],[1,1],[0.75,1],[0.5,1],[0.25,1],[0,1],[0,0.75],[0,0.5],[0,0.25]];outlineConnect=0;gradientColor=none;html=1;whiteSpace=wrap;fontSize=12;fontStyle=0;container=1;pointerEvents=0;collapsible=0;recursiveResize=0;shape=mxgraph.aws4.group;grIcon=mxgraph.aws4.group_security_group;grStroke=0;strokeColor=#00A4A6;fillColor=#E6F6F7;verticalAlign=top;align=left;spacingLeft=30;fontColor=#147EBA;dashed=0;" vertex="1" parent="6R8JOHNXibe60x__d1td-96">
          <mxGeometry x="742.5" y="15" width="200" height="120" as="geometry" />
        </mxCell>
        <mxCell id="6R8JOHNXibe60x__d1td-105" value="10.0.7.0/24" style="text;whiteSpace=wrap;html=1;strokeWidth=4;perimeterSpacing=3;fontSize=16;" vertex="1" parent="6R8JOHNXibe60x__d1td-104">
          <mxGeometry x="67.5" y="30" width="80" height="29" as="geometry" />
        </mxCell>
        <mxCell id="6R8JOHNXibe60x__d1td-106" value="Amazon EC2" style="sketch=0;outlineConnect=0;fontColor=#232F3E;gradientColor=none;strokeColor=#ffffff;fillColor=#232F3E;dashed=0;verticalLabelPosition=middle;verticalAlign=bottom;align=center;html=1;whiteSpace=wrap;fontSize=10;fontStyle=1;spacing=3;shape=mxgraph.aws4.productIcon;prIcon=mxgraph.aws4.ec2;" vertex="1" parent="6R8JOHNXibe60x__d1td-104">
          <mxGeometry x="10" y="35.37" width="50" height="49.25" as="geometry" />
        </mxCell>
        <mxCell id="6R8JOHNXibe60x__d1td-108" style="edgeStyle=orthogonalEdgeStyle;rounded=0;orthogonalLoop=1;jettySize=auto;html=1;flowAnimation=1;" edge="1" parent="Q8-ERmqbzzPLjcMzx1Q9-110" source="6R8JOHNXibe60x__d1td-107" target="6R8JOHNXibe60x__d1td-101">
          <mxGeometry relative="1" as="geometry" />
        </mxCell>
        <mxCell id="6R8JOHNXibe60x__d1td-109" style="edgeStyle=orthogonalEdgeStyle;rounded=0;orthogonalLoop=1;jettySize=auto;html=1;flowAnimation=1;" edge="1" parent="Q8-ERmqbzzPLjcMzx1Q9-110" source="6R8JOHNXibe60x__d1td-107" target="6R8JOHNXibe60x__d1td-106">
          <mxGeometry relative="1" as="geometry" />
        </mxCell>
        <mxCell id="6R8JOHNXibe60x__d1td-107" value="" style="sketch=0;outlineConnect=0;fontColor=#232F3E;gradientColor=none;fillColor=#8C4FFF;strokeColor=none;dashed=0;verticalLabelPosition=bottom;verticalAlign=top;align=center;html=1;fontSize=12;fontStyle=0;aspect=fixed;pointerEvents=1;shape=mxgraph.aws4.application_load_balancer;" vertex="1" parent="Q8-ERmqbzzPLjcMzx1Q9-110">
          <mxGeometry x="536" y="326.5" width="78" height="78" as="geometry" />
        </mxCell>
        <mxCell id="6R8JOHNXibe60x__d1td-115" style="edgeStyle=orthogonalEdgeStyle;rounded=0;orthogonalLoop=1;jettySize=auto;html=1;flowAnimation=1;" edge="1" parent="Q8-ERmqbzzPLjcMzx1Q9-110" source="6R8JOHNXibe60x__d1td-7" target="6R8JOHNXibe60x__d1td-107">
          <mxGeometry relative="1" as="geometry" />
        </mxCell>
        <mxCell id="6R8JOHNXibe60x__d1td-118" value="&lt;font style=&quot;font-size: 14px;&quot;&gt;Web Tier&lt;/font&gt;" style="edgeLabel;html=1;align=center;verticalAlign=middle;resizable=0;points=[];" vertex="1" connectable="0" parent="Q8-ERmqbzzPLjcMzx1Q9-110">
          <mxGeometry x="235" y="510" as="geometry">
            <mxPoint x="42" y="-12" as="offset" />
          </mxGeometry>
        </mxCell>
        <mxCell id="6R8JOHNXibe60x__d1td-48" style="edgeStyle=orthogonalEdgeStyle;rounded=0;orthogonalLoop=1;jettySize=auto;html=1;flowAnimation=1;" edge="1" parent="Q8-ERmqbzzPLjcMzx1Q9-109" source="6R8JOHNXibe60x__d1td-25" target="6R8JOHNXibe60x__d1td-5">
          <mxGeometry relative="1" as="geometry" />
        </mxCell>
        <mxCell id="6R8JOHNXibe60x__d1td-49" style="edgeStyle=orthogonalEdgeStyle;rounded=0;orthogonalLoop=1;jettySize=auto;html=1;flowAnimation=1;" edge="1" parent="Q8-ERmqbzzPLjcMzx1Q9-109" source="6R8JOHNXibe60x__d1td-25" target="6R8JOHNXibe60x__d1td-20">
          <mxGeometry relative="1" as="geometry" />
        </mxCell>
        <mxCell id="6R8JOHNXibe60x__d1td-50" style="edgeStyle=orthogonalEdgeStyle;rounded=0;orthogonalLoop=1;jettySize=auto;html=1;flowAnimation=1;" edge="1" parent="Q8-ERmqbzzPLjcMzx1Q9-109" source="6R8JOHNXibe60x__d1td-25">
          <mxGeometry relative="1" as="geometry">
            <mxPoint x="387.5" y="240" as="targetPoint" />
          </mxGeometry>
        </mxCell>
        <mxCell id="6R8JOHNXibe60x__d1td-25" value="" style="sketch=0;outlineConnect=0;fontColor=#232F3E;gradientColor=none;fillColor=#8C4FFF;strokeColor=none;dashed=0;verticalLabelPosition=bottom;verticalAlign=top;align=center;html=1;fontSize=12;fontStyle=0;aspect=fixed;pointerEvents=1;shape=mxgraph.aws4.internet_gateway;" vertex="1" parent="Q8-ERmqbzzPLjcMzx1Q9-109">
          <mxGeometry x="661.25" y="-10" width="78" height="78" as="geometry" />
        </mxCell>
        <mxCell id="6R8JOHNXibe60x__d1td-57" value="&lt;font style=&quot;font-size: 16px;&quot;&gt;Subscribe&lt;/font&gt;" style="edgeLabel;html=1;align=center;verticalAlign=middle;resizable=0;points=[];" vertex="1" connectable="0" parent="Q8-ERmqbzzPLjcMzx1Q9-109">
          <mxGeometry x="470" y="990" as="geometry" />
        </mxCell>
        <mxCell id="6R8JOHNXibe60x__d1td-64" value="User: Admin&lt;br&gt;Group: Admin&lt;br&gt;Attached Policy: Administrator&amp;nbsp;" style="sketch=0;outlineConnect=0;fontColor=#232F3E;gradientColor=none;fillColor=#DD344C;strokeColor=none;dashed=0;verticalLabelPosition=bottom;verticalAlign=top;align=left;html=1;fontSize=12;fontStyle=0;aspect=fixed;pointerEvents=1;shape=mxgraph.aws4.permissions;labelPosition=center;" vertex="1" parent="Q8-ERmqbzzPLjcMzx1Q9-109">
          <mxGeometry y="720" width="92" height="115.74" as="geometry" />
        </mxCell>
        <mxCell id="6R8JOHNXibe60x__d1td-51" value="" style="sketch=0;points=[[0,0,0],[0.25,0,0],[0.5,0,0],[0.75,0,0],[1,0,0],[0,1,0],[0.25,1,0],[0.5,1,0],[0.75,1,0],[1,1,0],[0,0.25,0],[0,0.5,0],[0,0.75,0],[1,0.25,0],[1,0.5,0],[1,0.75,0]];points=[[0,0,0],[0.25,0,0],[0.5,0,0],[0.75,0,0],[1,0,0],[0,1,0],[0.25,1,0],[0.5,1,0],[0.75,1,0],[1,1,0],[0,0.25,0],[0,0.5,0],[0,0.75,0],[1,0.25,0],[1,0.5,0],[1,0.75,0]];outlineConnect=0;fontColor=#232F3E;fillColor=#E7157B;strokeColor=#ffffff;dashed=0;verticalLabelPosition=bottom;verticalAlign=top;align=center;html=1;fontSize=12;fontStyle=0;aspect=fixed;shape=mxgraph.aws4.resourceIcon;resIcon=mxgraph.aws4.cloudwatch_2;" vertex="1" parent="Q8-ERmqbzzPLjcMzx1Q9-108">
          <mxGeometry x="750" y="1037" width="78" height="78" as="geometry" />
        </mxCell>
        <mxCell id="6R8JOHNXibe60x__d1td-52" style="edgeStyle=orthogonalEdgeStyle;rounded=0;orthogonalLoop=1;jettySize=auto;html=1;flowAnimation=1;" edge="1" parent="Q8-ERmqbzzPLjcMzx1Q9-108" source="6R8JOHNXibe60x__d1td-14" target="6R8JOHNXibe60x__d1td-51">
          <mxGeometry relative="1" as="geometry">
            <Array as="points">
              <mxPoint x="703" y="800" />
              <mxPoint x="703" y="800" />
            </Array>
          </mxGeometry>
        </mxCell>
        <mxCell id="6R8JOHNXibe60x__d1td-117" style="edgeStyle=orthogonalEdgeStyle;rounded=0;orthogonalLoop=1;jettySize=auto;html=1;entryX=1;entryY=0.5;entryDx=0;entryDy=0;entryPerimeter=0;flowAnimation=1;" edge="1" parent="Q8-ERmqbzzPLjcMzx1Q9-108" source="6R8JOHNXibe60x__d1td-34" target="6R8JOHNXibe60x__d1td-51">
          <mxGeometry relative="1" as="geometry" />
        </mxCell>
        <mxCell id="Q8-ERmqbzzPLjcMzx1Q9-163" value="&lt;u&gt;Scalabe Web Application_EC2-Based&lt;/u&gt;" style="text;strokeColor=none;fillColor=none;html=1;fontSize=24;fontStyle=1;verticalAlign=middle;align=left;" vertex="1" parent="1">
          <mxGeometry x="-227.5" y="-530" width="600" height="40" as="geometry" />
        </mxCell>
        <mxCell id="6R8JOHNXibe60x__d1td-26" style="edgeStyle=orthogonalEdgeStyle;rounded=0;orthogonalLoop=1;jettySize=auto;html=1;flowAnimation=1;" edge="1" parent="1" source="6R8JOHNXibe60x__d1td-82" target="6R8JOHNXibe60x__d1td-25">
          <mxGeometry relative="1" as="geometry" />
        </mxCell>
        <mxCell id="Q8-ERmqbzzPLjcMzx1Q9-165" value="&lt;font style=&quot;font-size: 16px;&quot;&gt;External User&lt;/font&gt;" style="sketch=0;outlineConnect=0;fontColor=#232F3E;gradientColor=none;fillColor=#232F3D;strokeColor=none;dashed=0;verticalLabelPosition=bottom;verticalAlign=top;align=center;html=1;fontSize=12;fontStyle=0;aspect=fixed;pointerEvents=1;shape=mxgraph.aws4.user;" vertex="1" parent="1">
          <mxGeometry x="503.75" y="-740" width="77.5" height="77.5" as="geometry" />
        </mxCell>
        <mxCell id="Q8-ERmqbzzPLjcMzx1Q9-166" value="&lt;span style=&quot;font-size: 16px;&quot;&gt;Administrator&lt;/span&gt;" style="sketch=0;outlineConnect=0;fontColor=#232F3E;gradientColor=none;fillColor=#232F3D;strokeColor=none;dashed=0;verticalLabelPosition=bottom;verticalAlign=top;align=center;html=1;fontSize=12;fontStyle=0;aspect=fixed;pointerEvents=1;shape=mxgraph.aws4.user;" vertex="1" parent="1">
          <mxGeometry x="-640" y="440" width="80" height="80" as="geometry" />
        </mxCell>
        <mxCell id="6R8JOHNXibe60x__d1td-65" style="edgeStyle=orthogonalEdgeStyle;rounded=0;orthogonalLoop=1;jettySize=auto;html=1;" edge="1" parent="1" source="6R8JOHNXibe60x__d1td-64" target="Q8-ERmqbzzPLjcMzx1Q9-166">
          <mxGeometry relative="1" as="geometry" />
        </mxCell>
        <mxCell id="6R8JOHNXibe60x__d1td-68" style="edgeStyle=orthogonalEdgeStyle;rounded=0;orthogonalLoop=1;jettySize=auto;html=1;textShadow=0;flowAnimation=1;" edge="1" parent="1" source="6R8JOHNXibe60x__d1td-53" target="Q8-ERmqbzzPLjcMzx1Q9-166">
          <mxGeometry relative="1" as="geometry" />
        </mxCell>
        <mxCell id="6R8JOHNXibe60x__d1td-70" value="&lt;font style=&quot;font-size: 16px;&quot;&gt;Admin Access Through Basion Host&lt;/font&gt;" style="edgeLabel;html=1;align=center;verticalAlign=middle;resizable=0;points=[];" vertex="1" connectable="0" parent="1">
          <mxGeometry x="-430" y="450" as="geometry">
            <mxPoint x="28" y="-6" as="offset" />
          </mxGeometry>
        </mxCell>
        <mxCell id="6R8JOHNXibe60x__d1td-81" value="&lt;font&gt;Internet Gateway&lt;/font&gt;" style="edgeLabel;html=1;align=center;verticalAlign=middle;resizable=0;points=[];fontSize=17;" vertex="1" connectable="0" parent="1">
          <mxGeometry x="560" y="-460" as="geometry">
            <mxPoint x="-18" y="26" as="offset" />
          </mxGeometry>
        </mxCell>
        <mxCell id="6R8JOHNXibe60x__d1td-83" value="" style="edgeStyle=orthogonalEdgeStyle;rounded=0;orthogonalLoop=1;jettySize=auto;html=1;flowAnimation=1;" edge="1" parent="1" source="Q8-ERmqbzzPLjcMzx1Q9-165" target="6R8JOHNXibe60x__d1td-82">
          <mxGeometry relative="1" as="geometry">
            <mxPoint x="543" y="-722" as="sourcePoint" />
            <mxPoint x="543" y="-420" as="targetPoint" />
          </mxGeometry>
        </mxCell>
        <mxCell id="6R8JOHNXibe60x__d1td-82" value="&lt;font style=&quot;font-size: 16px;&quot;&gt;Route 53&lt;br&gt;&amp;nbsp;DNS resolution&lt;/font&gt;" style="sketch=0;points=[[0,0,0],[0.25,0,0],[0.5,0,0],[0.75,0,0],[1,0,0],[0,1,0],[0.25,1,0],[0.5,1,0],[0.75,1,0],[1,1,0],[0,0.25,0],[0,0.5,0],[0,0.75,0],[1,0.25,0],[1,0.5,0],[1,0.75,0]];outlineConnect=0;fontColor=#232F3E;fillColor=#8C4FFF;strokeColor=#ffffff;dashed=0;verticalLabelPosition=bottom;verticalAlign=top;align=center;html=1;fontSize=12;fontStyle=0;aspect=fixed;shape=mxgraph.aws4.resourceIcon;resIcon=mxgraph.aws4.route_53;" vertex="1" parent="1">
          <mxGeometry x="511.13" y="-612.62" width="62.75" height="62.75" as="geometry" />
        </mxCell>
        <mxCell id="6R8JOHNXibe60x__d1td-88" value="" style="edgeStyle=orthogonalEdgeStyle;rounded=0;orthogonalLoop=1;jettySize=auto;html=1;" edge="1" parent="1" source="Q8-ERmqbzzPLjcMzx1Q9-166" target="6R8JOHNXibe60x__d1td-7">
          <mxGeometry relative="1" as="geometry">
            <mxPoint x="-564" y="480" as="sourcePoint" />
            <mxPoint x="135" y="-70" as="targetPoint" />
          </mxGeometry>
        </mxCell>
        <mxCell id="6R8JOHNXibe60x__d1td-53" value="" style="sketch=0;points=[[0,0,0],[0.25,0,0],[0.5,0,0],[0.75,0,0],[1,0,0],[0,1,0],[0.25,1,0],[0.5,1,0],[0.75,1,0],[1,1,0],[0,0.25,0],[0,0.5,0],[0,0.75,0],[1,0.25,0],[1,0.5,0],[1,0.75,0]];outlineConnect=0;fontColor=#232F3E;fillColor=#E7157B;strokeColor=#ffffff;dashed=0;verticalLabelPosition=bottom;verticalAlign=top;align=center;html=1;fontSize=12;fontStyle=0;aspect=fixed;shape=mxgraph.aws4.resourceIcon;resIcon=mxgraph.aws4.sns;" vertex="1" parent="1">
          <mxGeometry x="80" y="577" width="78" height="78" as="geometry" />
        </mxCell>
        <mxCell id="6R8JOHNXibe60x__d1td-54" style="edgeStyle=orthogonalEdgeStyle;rounded=0;orthogonalLoop=1;jettySize=auto;html=1;flowAnimation=1;" edge="1" parent="1" source="6R8JOHNXibe60x__d1td-51" target="6R8JOHNXibe60x__d1td-53">
          <mxGeometry relative="1" as="geometry" />
        </mxCell>
        <mxCell id="6R8JOHNXibe60x__d1td-119" value="&lt;font style=&quot;font-size: 14px;&quot;&gt;Web Tier&lt;/font&gt;" style="edgeLabel;html=1;align=center;verticalAlign=middle;resizable=0;points=[];" vertex="1" connectable="0" parent="1">
          <mxGeometry x="858" y="232" as="geometry">
            <mxPoint x="42" y="-12" as="offset" />
          </mxGeometry>
        </mxCell>
      </root>
    </mxGraphModel>
  </diagram>
</mxfile>
